<mxfile host="app.diagrams.net" modified="2023-07-07T06:02:38.508Z" agent="Mozilla/5.0 (Windows NT 10.0; Win64; x64) AppleWebKit/537.36 (KHTML, like Gecko) Chrome/114.0.0.0 Safari/537.36" version="21.6.1" etag="0WlZy_e22WEgcB3irGTP" type="github">
  <diagram name="Page-1" id="EQAwDU_ffp7rW-eUX_jh">
    <mxGraphModel>
      <root>
        <mxCell id="0" />
        <mxCell id="1" parent="0" />
      </root>
    </mxGraphModel>
  </diagram>
</mxfile>
